<?xml version="1.0" standalone="no"?>
<!DOCTYPE svg PUBLIC "-//W3C//DTD SVG 20010904//EN"
 "http://www.w3.org/TR/2001/REC-SVG-20010904/DTD/svg10.dtd">
<svg version="1.0" xmlns="http://www.w3.org/2000/svg"
 width="512.000000pt" height="512.000000pt" viewBox="0 0 512.000000 512.000000"
 preserveAspectRatio="xMidYMid meet">
<metadata>
Created by potrace 1.14, written by Peter Selinger 2001-2017
</metadata>
<g transform="translate(0.000000,512.000000) scale(0.100000,-0.100000)"
fill="#000000" stroke="none">
<path d="M0 3752 l0 -1368 157 -22 c155 -21 158 -21 177 -2 17 16 18 23 8 45
-15 33 -34 39 -166 55 -107 13 -108 13 -85 31 34 26 125 74 186 98 l52 20 38
-57 c91 -136 219 -246 378 -323 143 -70 230 -90 405 -96 167 -6 276 12 416 66
193 75 381 224 494 393 33 49 60 93 60 97 0 10 102 -8 232 -40 87 -21 88 -22
80 -48 -4 -14 -7 -56 -6 -93 1 -86 39 -168 92 -203 73 -47 264 -81 380 -66 53
6 65 5 72 -8 53 -101 61 -384 11 -411 -31 -16 -261 -59 -407 -76 -233 -27
-652 -11 -947 37 -75 12 -152 0 -197 -31 -14 -10 -51 -30 -83 -45 -139 -68
-194 -198 -152 -360 57 -219 304 -435 616 -539 140 -47 297 -73 526 -87 661
-41 1137 71 1543 361 249 178 505 458 670 734 106 177 174 388 151 472 -25 91
-141 152 -270 141 -96 -8 -174 -40 -397 -164 -353 -196 -553 -289 -805 -373
-83 -28 -153 -49 -154 -48 -1 2 2 35 8 73 12 82 -3 218 -32 295 l-19 49 52 17
c77 25 117 48 173 98 92 83 144 190 129 269 -9 47 -57 102 -134 153 -31 21
-61 42 -66 46 -5 4 15 19 45 33 l55 25 73 -31 c172 -72 383 -103 556 -80 173
23 355 101 467 200 l47 41 95 -30 c53 -17 119 -42 147 -55 47 -22 50 -24 30
-34 -26 -14 -27 -52 -3 -74 24 -22 30 -21 87 4 l47 21 41 -28 c54 -35 157
-117 157 -125 0 -4 -36 -10 -80 -13 -71 -7 -82 -10 -97 -32 -13 -20 -14 -30
-5 -49 13 -29 25 -30 172 -12 l95 12 3 1253 2 1252 -2560 0 -2560 0 0 -1368z
m3800 513 c404 -84 710 -408 710 -751 0 -166 -52 -288 -174 -410 -92 -92 -193
-149 -331 -185 -122 -33 -325 -31 -460 4 -300 79 -542 285 -633 539 -31 87
-41 241 -22 332 18 87 81 203 146 270 124 127 260 188 489 220 47 7 204 -4
275 -19z m-2315 -305 c348 -89 595 -369 635 -719 48 -425 -237 -833 -676 -967
-81 -25 -104 -28 -254 -28 -143 -1 -176 2 -245 22 -243 70 -439 232 -541 447
-65 138 -78 197 -78 360 0 116 3 154 22 220 87 308 317 547 620 644 53 18 124
36 157 41 90 14 268 4 360 -20z m1223 -1202 c21 -21 14 -38 -37 -94 -27 -29
-56 -73 -63 -96 -11 -31 -21 -44 -37 -46 -26 -4 -51 14 -51 37 0 33 50 122 94
166 46 46 72 55 94 33z m-120 -322 c4 -36 -10 -50 -42 -42 -20 5 -26 13 -26
35 0 35 8 43 40 39 19 -2 26 -9 28 -32z m1487 -296 c10 -32 -4 -95 -26 -119
-30 -32 -66 -27 -106 15 -19 20 -31 39 -28 42 8 8 139 80 147 81 4 1 10 -8 13
-19z m-391 -202 c3 -13 6 -45 6 -72 0 -55 -20 -86 -54 -86 -36 0 -136 69 -136
94 0 9 146 81 171 85 4 1 9 -9 13 -21z m786 -54 c0 -16 -53 -93 -61 -88 -13 8
-11 68 3 82 12 12 58 17 58 6z m-2571 -240 c3 -3 -3 -20 -13 -38 -20 -37 -54
-60 -82 -54 -22 4 -64 63 -64 91 0 19 4 19 77 13 43 -4 80 -9 82 -12z m150
-13 c22 -14 -4 -41 -40 -41 -25 0 -49 22 -49 44 0 10 74 6 89 -3z m2075 -170
l30 -12 -75 -75 -74 -75 -22 26 c-31 36 -48 101 -34 133 11 23 15 24 79 20 37
-3 80 -10 96 -17z m-213 -188 c16 -10 29 -20 29 -23 0 -3 -39 -33 -87 -68 -54
-39 -90 -59 -96 -53 -5 5 -12 30 -14 55 -5 40 -2 48 25 76 24 24 39 30 72 30
23 0 55 -8 71 -17z m-1977 -254 c32 -15 56 -66 56 -119 l0 -42 -32 7 c-18 4
-61 16 -95 27 l-63 19 20 38 c18 37 63 81 81 81 4 0 19 -5 33 -11z m265 -135
c41 -52 29 -60 -76 -48 -38 5 -53 11 -53 22 0 54 93 72 129 26z"/>
<path d="M4112 3705 l-24 -34 -49 20 c-99 39 -141 20 -113 -51 12 -31 14 -44
5 -53 -20 -20 -12 -37 19 -37 26 0 30 -4 30 -28 0 -28 21 -67 48 -89 25 -21
52 -15 62 12 11 29 8 29 53 10 56 -23 60 -21 55 33 -7 59 -3 69 33 87 16 9 29
19 29 23 0 5 -19 17 -42 28 -35 18 -43 27 -52 64 -6 24 -15 45 -21 47 -5 1
-21 -13 -33 -32z"/>
<path d="M848 3585 c-36 -43 -37 -44 -71 -33 -26 8 -41 7 -63 -3 -42 -20 -42
-50 -1 -96 32 -35 34 -40 21 -58 -32 -43 -7 -105 42 -105 14 0 41 -7 61 -15
52 -22 60 -19 89 25 15 22 38 43 51 46 l24 6 -21 36 -21 35 32 33 c27 28 30
36 19 49 -7 8 -30 20 -51 25 -23 7 -46 22 -59 40 -24 34 -34 37 -52 15z"/>
<path d="M4464 2627 c-13 -35 2 -50 86 -85 68 -29 97 -48 145 -96 70 -71 95
-129 95 -223 0 -58 15 -93 39 -93 25 0 33 34 29 114 -8 158 -88 267 -252 346
-103 49 -134 57 -142 37z"/>
<path d="M5005 2473 c-83 -4 -115 -19 -115 -54 0 -35 28 -49 99 -49 38 0 83 3
100 6 30 6 31 9 31 55 0 41 -3 49 -17 47 -10 -1 -54 -4 -98 -5z"/>
<path d="M0 2012 l0 -50 132 -7 c127 -7 132 -7 149 14 18 22 16 53 -5 70 -6 5
-71 12 -143 16 l-133 7 0 -50z"/>
<path d="M1244 1834 c-222 -122 -305 -229 -291 -373 8 -74 64 -185 96 -189 43
-7 47 13 12 80 -87 173 -34 279 205 414 104 59 118 72 108 98 -11 29 -33 23
-130 -30z"/>
<path d="M213 1642 l-213 -57 0 -52 c0 -37 4 -51 13 -48 6 2 109 29 227 60
118 31 221 61 228 67 6 6 12 19 12 29 0 19 -33 60 -47 58 -5 0 -104 -26 -220
-57z"/>
</g>
</svg>
